<?xml version="1.0" encoding="UTF-8" standalone="no"?>
<!-- Created with Inkscape (http://www.inkscape.org/) -->

<svg
   width="120"
   height="120"
   viewBox="0 0 31.75 31.75"
   version="1.1"
   id="svg5"
   xmlns="http://www.w3.org/2000/svg"
   xmlns:svg="http://www.w3.org/2000/svg">
  <defs
     id="defs2" />
  <g
     id="layer1">
    <ellipse
       style="opacity:1;fill:#f2d031;fill-opacity:1;stroke:none;stroke-width:0.564885;stroke-miterlimit:4;stroke-dasharray:0.564885, 0.564885;stroke-dashoffset:0;paint-order:stroke fill markers"
       id="skin"
       cx="15.572325"
       cy="18.053289"
       rx="9.2347326"
       ry="12.574766" />
    <g
       id="eyes"
       transform="matrix(-0.99999432,0,0,-1.0000001,30.656345,27.100956)">
      <ellipse
         style="fill:#ffffff;fill-opacity:1;stroke:#000000;stroke-width:0.15875;stroke-miterlimit:4;stroke-dasharray:none;stroke-dashoffset:0;stroke-opacity:1;paint-order:stroke fill markers"
         id="path8328-3"
         cx="18.608015"
         cy="13.511591"
         rx="1.5694131"
         ry="0.64367348" />
      <ellipse
         style="opacity:1;fill:#ffffff;fill-opacity:1;stroke:#000000;stroke-width:0.15875;stroke-miterlimit:4;stroke-dasharray:none;stroke-dashoffset:0;stroke-opacity:1;paint-order:stroke fill markers"
         id="path8328"
         cx="12.048445"
         cy="13.589362"
         rx="1.5694131"
         ry="0.64367348" />
      <circle
         style="fill:#000000;fill-opacity:1;stroke:none;stroke-width:6.72768;stroke-miterlimit:4;stroke-dasharray:none;stroke-opacity:1;paint-order:stroke fill markers"
         id="path2105-7"
         cx="18.643436"
         cy="13.536193"
         r="0.58546859" />
      <circle
         style="opacity:1;fill:#000000;fill-opacity:1;stroke:none;stroke-width:6.72768;stroke-miterlimit:4;stroke-dasharray:none;stroke-opacity:1;paint-order:stroke fill markers"
         id="path2105"
         cx="12.054112"
         cy="13.613039"
         r="0.58546859" />
    </g>
    <g
       id="glasses"
       style="display:inline">
      <ellipse
         style="fill:none;stroke:#000000;stroke-width:0.185208;stroke-miterlimit:4;stroke-dasharray:none;stroke-opacity:1;paint-order:stroke fill markers"
         id="path871-6"
         cx="18.563747"
         cy="13.472151"
         rx="1.90722"
         ry="1.4053795" />
      <path
         style="fill:none;stroke:#000000;stroke-width:0.185208;stroke-linecap:butt;stroke-linejoin:miter;stroke-miterlimit:4;stroke-dasharray:none;stroke-opacity:1"
         d="m 13.919223,13.646665 2.695707,-0.08331"
         id="path1074" />
      <path
         style="fill:none;stroke:#000000;stroke-width:0.185208;stroke-linecap:butt;stroke-linejoin:miter;stroke-miterlimit:4;stroke-dasharray:none;stroke-opacity:1"
         d="m 10.000758,13.616672 -2.3029209,-1.012461 -0.85863,0.937383"
         id="path1189" />
      <path
         style="fill:none;stroke:#000000;stroke-width:0.185208;stroke-linecap:butt;stroke-linejoin:miter;stroke-miterlimit:4;stroke-dasharray:none;stroke-opacity:1"
         d="m 20.559686,13.583495 2.460761,-1.433291 1.066517,0.910296"
         id="path1191" />
      <ellipse
         style="opacity:1;fill:none;stroke:#000000;stroke-width:0.185208;stroke-miterlimit:4;stroke-dasharray:none;stroke-opacity:1;paint-order:stroke fill markers"
         id="path871"
         cx="11.993456"
         cy="13.637649"
         rx="1.90722"
         ry="1.4053795" />
    </g>
    <path
       style="fill:none;stroke:#000000;stroke-width:0.264583px;stroke-linecap:butt;stroke-linejoin:miter;stroke-opacity:1"
       d="m 15.398379,15.228492 c 0,0 -2.42774,2.728855 -1.865171,3.416364 0.562568,0.687508 1.661595,0.515241 1.661595,0.515241"
       id="nose" />
    <path
       style="fill:none;stroke:#000000;stroke-width:0.264583px;stroke-linecap:butt;stroke-linejoin:miter;stroke-opacity:1"
       d="m 12.141501,23.710031 c 0,0 1.219734,1.91945 2.864037,1.898585 1.644303,-0.02087 3.468939,-1.613201 3.468939,-1.613201"
       id="mouth" />
    <path
       style="fill:none;stroke:#000000;stroke-width:1.5875;stroke-linecap:butt;stroke-linejoin:miter;stroke-miterlimit:4;stroke-dasharray:none;stroke-opacity:1"
       d="M 7.0811781,11.455296 C 7.3727907,10.878451 7.6777225,10.31069 7.9890738,9.7445961 8.0011732,9.722596 8.1112415,9.4007632 8.1732815,9.4723168 8.3948616,9.7278766 7.8079311,11.7054 7.7569837,11.919379 c -0.4520935,1.898797 0.00972,0.117685 -0.2429222,0.917706 -0.065503,0.207427 -0.04532,0.255473 -0.1349563,0.40487 -0.00655,0.01091 -0.026916,0.03971 -0.026991,0.02699 -0.00464,-0.789044 0.6631707,-2.195007 0.967635,-2.966319 C 8.3347062,10.264739 8.4910934,9.6852554 8.5896624,9.6278434 8.7731588,9.5209647 8.4743466,10.339016 8.5254091,10.203885 8.6047248,9.9939844 8.6503136,9.7653426 8.7272997,9.5536315 8.8750967,9.1471894 9.3138132,8.0449424 9.4020837,7.8261847 9.4533634,7.6991005 9.5083737,7.573534 9.5640312,7.4483052 9.6068011,7.352073 9.6719968,7.0460919 9.6719968,7.1514003 c 0,0.4249664 -0.077622,0.3936098 0.3493762,0.1218814 0.192111,-0.1222534 0.396101,-0.2355575 0.59381,-0.3508875 0.16186,-0.094419 0.316513,-0.1793666 0.323896,-0.1349573 0.0067,0.040451 -0.350592,0.3236002 -0.383945,0.3569533 -0.03588,0.035879 -0.128644,0.1538235 -0.107637,0.1076365 0.173331,-0.3810749 1.333538,-1.0194174 1.668521,-1.2497186 0.34564,-0.2376271 0.698654,-0.3908542 1.106647,-0.4588529 0.13344,-0.022241 0.244359,-0.026992 0.377878,-0.026992 0.03578,0 0.143108,0 0.107331,0 -0.342631,0 -0.712582,0.1094558 -1.047557,0.1867575 -0.108439,0.025024 -0.434956,0.073826 -0.323897,0.080974 0.36338,0.023386 0.91444,-0.1859706 1.237051,-0.2646561 0.798515,-0.1947598 1.582526,-0.4217575 2.402231,-0.5128358 0.204405,-0.022712 0.672578,-0.021553 0.674782,-0.026991 0.0049,-0.012041 -0.777024,-0.094152 -0.841336,-0.1001816 -0.197885,-0.018553 -0.395443,-0.041585 -0.593809,-0.053983 -0.870061,-0.054379 0.04952,0.044242 -0.377881,-0.026991 -0.01775,-0.00296 -0.06063,-0.016719 -0.05398,0 0.03134,0.078767 0.366338,0.2231398 0.433831,0.2549009 0.430195,0.2024441 0.885247,0.3548028 1.322577,0.5398268 0.04411,0.018664 0.531202,0.2520627 0.647791,0.2969048 0.08439,0.032459 0.287861,0.1156126 0.269915,0.026991 -0.05561,-0.2746126 -1.224834,-1.148017 -1.168888,-1.2181855 0.06695,-0.083965 1.111069,0.3686854 1.18726,0.4021351 0.467877,0.2054093 0.920905,0.4199639 1.376561,0.6477924 1.04187,0.5209368 0.846945,0.2433317 1.853236,1.3874218 0.346633,0.3940995 0.622708,0.7358895 0.944695,1.1336363 0.235117,0.2904371 -0.03739,-0.044231 0.269917,0.3508875 0.0078,0.010044 0.03762,0.033976 0.02699,0.026992 -0.607948,-0.3992936 -1.140014,-0.8897721 -1.699595,-1.3594202 -0.320012,-0.2685812 -1.136467,-0.8352917 -1.40355,-1.214611 -0.02908,-0.041302 0.09867,0.025154 0.143763,0.047922 0.231346,0.1168074 0.465514,0.2521579 0.674786,0.4048701 0.713298,0.5205146 1.446285,1.0530359 2.024351,1.7274469 0.06325,0.073792 0.409818,0.4907896 0.512837,0.5938096 0.04074,0.040736 0.112701,0.1611027 0.134956,0.1079654 0.04507,-0.1076031 -0.80899,-1.7966536 -0.825553,-1.8288585 -0.03882,-0.075481 -0.205994,-0.2623846 -0.134956,-0.2159309 0.439432,0.2873544 0.985891,1.4526905 1.218596,1.8663893 0.185812,0.3303342 0.351984,0.6699501 0.53983,0.9986798 0.04396,0.076936 0.166937,0.1767856 0.107963,0.2429222 -0.09883,0.110834 -0.646982,-0.4520967 -0.575159,-0.133995 0.07268,0.321878 0.322293,0.758272 0.485844,1.052663 0.04019,0.07235 0.150949,0.12418 0.161949,0.215931 0.02489,0.207589 -0.224191,-0.35309 -0.329538,-0.533685 -0.34317,-0.588291 -0.700404,-1.1809386 -1.02567,-1.78143 -0.04791,-0.088448 -0.07916,-0.1862159 -0.134957,-0.2699129 -0.0071,-0.010589 -0.03599,-0.035989 -0.02699,-0.026992 0.612213,0.6122479 1.223094,1.9019899 1.629598,2.6780409 0.10055,0.19196 0.141742,0.465641 0.296902,0.620801 0.06896,0.06896 0.14842,0.135973 0.202149,0.216471 3.5e-5,5.2e-5 0.02894,0.02893 0.02893,0.02893 -0.310728,0.02666 -0.622263,0.04289 -0.933394,0.06434"
       id="shortHair" />
    <path
       style="display:inline;fill:none;stroke:#ff7200;stroke-width:1.69333;stroke-linecap:butt;stroke-linejoin:miter;stroke-miterlimit:4;stroke-dasharray:none;stroke-opacity:1"
       d="m 5.2765457,27.320576 c 0.091738,-0.513729 0.1030787,-0.560655 0.1891318,-1.126739 0.081901,-0.538774 0.136648,-1.080356 0.215931,-1.619481 0.00438,-0.0298 0.075113,-0.939861 0.2312749,-0.683517 0.048452,0.07953 0.1336119,0.407209 0.1349565,0.43186 0.045574,0.835538 0.014687,1.673506 0.026993,2.510197 0.00512,0.348078 0.020365,1.63772 -0.3238968,1.835412 C 5.5483767,28.784626 5.3178439,28.295475 5.2999266,28.240093 5.1393674,27.743819 4.9774633,27.243627 4.8950554,26.728576 4.6004067,24.887024 4.8302346,23.080613 5.0300119,21.249333 c 0.017428,-0.159768 0.030619,-0.912587 0.1079654,-0.99868 0.07499,-0.08347 0.2874748,0.414017 0.366913,0.963465 0.075068,0.519218 0.1255419,1.042145 0.1619491,1.565497 0.08688,1.248904 0.00333,2.454314 -0.080974,3.697816 -0.032914,0.485478 -0.061527,0.971327 -0.080975,1.457531 -0.00402,0.100513 0.00777,0.376309 -0.053982,0.296907 -0.4464947,-0.574071 -0.2254052,-4.15242 -0.2159313,-4.534548 0.020757,-0.837248 0.068129,-1.673637 0.1079656,-2.510194 0.019301,-0.405311 0.040598,-0.810857 0.080975,-1.214612 0.00722,-0.07218 -0.044966,-0.206775 0.026991,-0.21593 0.0032,-3.96e-4 0.1430136,0.217439 0.1492842,0.248808 0.047912,0.239675 0.066951,0.484752 0.080975,0.728766 0.09337,1.624648 0.014811,3.187 -0.1349566,4.804462 -0.015134,0.163446 -0.0821,0.983416 -0.1349562,0.998677 -0.055132,0.01593 -0.1122905,-0.0546 -0.1344306,-0.10754 C 5.1343313,26.089029 5.0067188,25.739115 4.9266742,25.37857 4.8620595,25.087528 4.867326,24.7852 4.8457013,24.487857 4.7953445,23.795448 4.7061474,23.103744 4.7107448,22.409522 c 0.00183,-0.276563 0.2202257,-2.625661 0.2699128,-3.211971 0.012301,-0.145132 0.057554,-1.03537 0.1349566,-1.079654 0.050153,-0.02869 0.014161,0.114755 0.024514,0.171601 0.036376,0.199698 0.1075304,0.392686 0.1349563,0.593809 0.1474936,1.081611 0.00652,2.236341 -0.026991,3.319937 -0.063296,2.046552 -0.015502,4.064714 -0.2699131,6.100047 -0.014155,0.113244 -0.0023,0.239747 -0.026991,0.350888 -0.076628,0.344815 -0.2812899,0.650674 -0.3508875,0.998678 -0.0063,0.0315 0.015092,0.08552 -0.026993,0.107965 -0.099254,0.05295 -0.2063464,-0.149957 -0.2123644,-0.262292 -0.024064,-0.449209 0.010581,-0.899834 0,-1.349568 -0.00742,-0.315325 -0.063346,-0.629422 -0.053982,-0.944697 0.00886,-0.298291 0.2049832,-2.617123 0.2429218,-3.104005 0.043374,-0.556639 0.079599,-1.119875 0.1349566,-1.673463 0.021384,-0.21383 -0.019907,-0.4338 0,-0.647793 0.094876,-1.019912 0.1520798,-1.136556 0.3508875,-2.267273 0.00818,-0.04653 0.3696181,-2.43588 0.512835,-2.591171 0.1548058,-0.167857 0.50488,0.710732 0.6064401,1.345481 0.1649222,1.030763 0.1645552,1.815484 0.1079656,2.834091 -0.00214,0.03843 -0.01611,0.592086 -0.053982,0.755759 -0.00746,0.03224 0,-0.06619 0,-0.09928 0,-0.358752 0.00886,-0.717613 0,-1.076255 C 6.1969851,20.194326 6.1496611,19.70897 6.1550031,19.222822 6.165394,18.277327 6.2960821,17.2967 6.4519095,16.361737 6.5012074,16.06595 6.8178356,14.738293 6.7218226,14.44535 6.6625668,14.264556 6.5936759,14.086396 6.5423404,13.902283 6.4022485,13.399848 6.2678074,12.89582 6.1374707,12.390767 c -0.043897,-0.170103 0.00505,-0.136184 -0.080974,-0.269915 -0.047892,-0.07445 0.016071,0.176322 0.024045,0.264488 0.028466,0.314769 0.055569,0.629666 0.080975,0.944697 0.075278,0.933454 0.2328564,2.787139 0.080973,3.85034 -0.041251,0.288763 -0.193277,0.652131 -0.4048694,0.863724 -0.4280638,0.428064 -0.6890652,-0.724782 -0.8195873,-1.348388 -0.3013056,-1.439571 -0.274592,-2.820061 0.1889403,-4.21065 0.00447,-0.01342 0.2093849,-0.748831 0.2159291,-0.755759 0.065698,-0.06955 0.2801953,0.274818 0.3394953,0.534825 0.2879222,1.262428 0.3793419,2.519009 0.4318622,3.805782 0.018174,0.445279 0.1570889,1.513457 -0.07244,1.169162 C 5.8109096,16.772706 5.8644743,15.764806 5.860441,15.393738 5.846354,14.09769 5.9969816,12.816094 6.2923031,11.560968 6.3309561,11.396693 6.6534065,9.9893063 6.7511562,9.8875029 c 0.031048,-0.032335 0.1684423,-0.04214 0.1755884,0.026982 0.018238,0.1764001 -0.02599,0.3565961 0,0.5320221 0.024313,0.164107 0.095558,0.32041 0.1079656,0.485844 0.032094,0.427915 -0.051573,0.878669 -0.1349563,1.295585 -0.03046,0.152298 0.021323,0.341986 -0.080975,0.458853 -0.036653,0.04187 -0.1203647,-0.229695 -0.1203647,-0.250719 0,-0.366242 -0.05012,-0.575994 0.080975,-0.944697 C 6.9636949,10.973009 7.0770987,10.841428 7.2382395,10.411719 7.4583088,9.8248675 7.648086,9.2290968 7.9670073,8.6842734 8.2049455,8.2777961 8.5038022,7.8819885 8.7767479,7.4966533 9.0094585,7.1681212 9.4980984,6.5151769 9.8564016,6.3360252 9.9307151,6.2988684 9.5615476,6.6623614 9.495823,6.6438321 9.4912748,6.6425621 9.6313878,6.4525088 9.7724297,6.3248997 10.162601,5.9718879 10.582317,5.6535343 11.014033,5.3532108 c 0.437407,-0.3042835 0.91709,-0.5280845 1.430541,-0.6747843 0.156948,-0.044842 0.325061,-0.081168 0.485846,-0.1079656 0.06212,-0.010353 0.222124,-0.053527 0.188938,0 -0.05938,0.095773 -1.118731,0.5968462 -1.186647,0.6325018 -0.145936,0.076616 -0.397762,0.2315551 -0.593811,0.2969048 -0.183961,0.06132 -0.297474,0.056729 -0.296904,0.053983 0.06505,-0.3133248 2.547027,-1.0438468 2.864875,-1.1416464 0.210874,-0.064884 0.409111,-0.050732 0.6208,-0.080974 0.03672,-0.00525 0.140802,-0.044251 0.107966,-0.026992 -0.16213,0.085218 -0.364075,0.1065753 -0.538047,0.1523577 -0.535818,0.1410055 -1.165682,0.2450907 -1.673463,0.4858438 -0.04345,0.020603 0.09673,-0.00724 0.144275,0 0.153098,0.023326 0.299862,0.026992 0.458853,0.026992 0.06297,0 0.239498,-0.037521 0.188922,0 -0.410993,0.3049037 -1.037254,0.539006 -1.471696,0.7617965 C 10.951389,6.137943 10.310926,6.5428055 9.963053,7.3777006 9.8917142,7.5489132 9.8201857,7.7200529 9.7471218,7.8905364 9.6963779,8.0089398 9.6483293,8.1291485 9.5851743,8.2414239 9.5223062,8.3531899 9.3716532,8.5266529 9.2882687,8.6193026 9.0662523,8.8659879 7.6006171,11.302068 6.9252633,10.604461 6.6088921,10.277665 7.008836,9.7043694 7.2012267,9.4237999 7.8695261,8.449198 8.6745878,7.2899251 9.6844304,6.6166994 10.922531,5.7913028 12.676144,5.8245104 14.084021,5.9689071 c 1.243332,0.1275204 2.404441,-0.00299 3.616841,-0.2969057 0.419606,-0.1017227 0.834294,-0.2353204 1.241603,-0.3778784 0.382023,-0.1337077 -0.159859,0.026528 0.323895,-0.080974 0.05342,-0.011872 0.216677,-0.026992 0.161949,-0.026992 -1.471236,0 -2.928464,-0.043547 -4.336328,-0.5128358 -0.08393,-0.027975 -1.113484,-0.4672904 -1.079656,-0.5398267 0.04725,-0.1013114 0.581178,-0.2201839 0.685906,-0.2361205 1.184541,-0.1802562 2.339476,-0.2387881 3.535866,-0.1889393 0.467995,0.0195 1.003767,0.017568 1.457534,0.1619483 0.775862,0.2468639 1.194093,0.8840637 1.619481,1.5385066 0.02191,0.033703 0.246134,0.2612541 0.163576,0.3492569 -0.429491,0.4578207 -1.94255,-0.2855172 -2.368875,-0.5051394 -0.186548,-0.096101 -0.365224,-0.2074936 -0.539827,-0.3238957 -0.06902,-0.046012 -0.271879,-0.1605751 -0.18894,-0.1619483 0.357066,-0.00591 2.39487,1.2081123 2.587666,1.3124116 1.42519,0.791768 -0.09568,-0.034347 0.728767,0.3778785 0.07198,0.035989 0.296404,0.1079656 0.215931,0.1079656 -0.715364,0 -1.528221,-0.4558348 -2.154444,-0.7242159 C 18.930182,5.487724 19.51423,5.7233154 19.134162,5.5712898 c -0.05604,-0.022416 -0.175919,-0.1396884 -0.161946,-0.080975 0.07959,0.3343968 0.669763,0.7906059 0.850912,0.9794631 1.843594,1.9707365 -0.189869,-0.1843383 1.457531,1.5115157 0.289464,0.2979771 0.530122,0.6396532 0.809743,0.9446971 0.04902,0.053471 0.220887,0.1730878 0.188938,0.1079656 C 22.030019,8.5257491 21.555293,8.1256562 21.215564,7.680494 21.067082,7.4859313 20.926545,7.2854237 20.783702,7.0866843 20.639971,6.8867104 20.540016,6.7358471 20.540782,6.7357968 c 0.255034,-0.016706 0.683403,0.7027743 0.832454,0.9466757 0.83427,1.3651685 1.437903,2.7751925 1.94338,4.2916245 0.09732,0.291956 0.158375,0.594807 0.24292,0.890715 0.07714,0.269976 0.04103,0.190012 0.107967,0.323897 0.009,0.01799 0.03819,0.0707 0.02699,0.05398 -0.529782,-0.790851 -0.933497,-1.718536 -1.306613,-2.589141 -0.06516,-0.152035 -0.127507,-0.305273 -0.188938,-0.458853 -0.02855,-0.07137 -0.09066,-0.139671 -0.08098,-0.2159288 0.01545,-0.1216364 0.191273,0.1553058 0.27218,0.2474378 0.181393,0.206558 0.445567,0.579476 0.566818,0.782749 0.65126,1.091818 1.181843,2.257642 1.835413,3.346927 0.151765,0.252943 0.320552,0.552008 0.512836,0.78275 0.06746,0.08095 0.130766,0.155662 0.188939,0.242921 0.0071,0.01059 0.03063,0.03919 0.02699,0.02699 -0.0556,-0.186505 -0.186476,-0.34184 -0.27102,-0.517133 -0.185353,-0.384313 -0.363607,-0.772043 -0.539826,-1.160628 -0.61235,-1.35031 -1.179261,-2.720814 -1.78143,-4.0756947 -0.189625,-0.426656 -0.399273,-0.8441539 -0.593808,-1.2685937 -0.05367,-0.1171049 -0.104339,-0.2356681 -0.161949,-0.3508875 -0.02012,-0.040236 -0.08917,-0.1521974 -0.08097,-0.1079646 0.09817,0.5298416 0.737461,1.3179584 0.983019,1.8018514 0.926856,1.8264511 1.633645,3.7015201 1.997361,5.7221681 0.15749,0.874942 0.204392,1.741812 0.323895,2.61816 0.03706,0.271755 0.113868,0.535562 0.134957,0.809741 0.0048,0.06279 0.05445,0.220591 0,0.18894 -0.328001,-0.190668 -0.694045,-0.959433 -0.804435,-1.177704 -0.587897,-1.162433 -1.037364,-2.259205 -1.376561,-3.508875 -0.06289,-0.23169 -0.113708,-0.466599 -0.161949,-0.701776 -0.05945,-0.289838 -0.05398,-0.261932 -0.05398,-0.458853 0,-0.02699 -0.02316,-0.09484 0,-0.08097 0.14011,0.08387 0.269215,0.594525 0.311862,0.704698 0.540411,1.396059 1.019083,2.793859 1.322576,4.264632 0.392028,1.89983 0.562404,3.846332 0.728768,5.77615 0.01084,0.125814 0.01799,0.251919 0.02699,0.377879 0.009,0.15295 0.01427,0.306166 0.02699,0.458851 0.006,0.07229 0.09943,0.212041 0.02699,0.215931 -0.123622,0.0066 -0.337028,-0.36191 -0.364781,-0.421381 -0.645889,-1.384046 -0.97678,-2.836625 -1.322576,-4.318614 -0.116166,-0.497857 -0.248914,-0.990174 -0.377876,-1.484525 -0.06544,-0.250866 -0.06909,-0.376063 -0.05399,-0.377878 0.121728,-0.01463 0.144207,0.200672 0.192771,0.313247 0.204009,0.472913 0.343631,0.971078 0.512833,1.457532 0.571146,1.642045 1.136473,3.293216 1.511517,4.993402 0.120073,0.544324 0.20995,1.099533 0.323895,1.646472 0.02807,0.134736 0.137204,0.530487 0.08097,0.404868 -0.257569,-0.575421 -0.372264,-1.312277 -0.525252,-1.896415 -0.539964,-2.061684 -0.26889,-0.789754 -0.917707,-4.075696 -0.142987,-0.724161 -0.294396,-1.503773 -0.404873,-2.240282 -0.05095,-0.5605 0.0083,-0.04883 -0.08097,-0.539828 -0.01617,-0.08896 -0.09481,-0.329716 -0.02699,-0.269913 0.111455,0.09828 0.526401,1.200567 0.552548,1.26419 0.732228,1.781752 1.368054,3.609809 1.835412,5.479245 0.178779,0.715115 0.361786,1.424024 0.56682,2.132318 0.07695,0.265814 0.117724,0.490426 0.161944,0.755756 0.0122,0.07318 0.09263,0.279265 0.05399,0.215932 -0.225965,-0.370346 -0.399574,-1.186337 -0.496287,-1.517923 -0.417416,-1.43114 -0.522139,-1.814257 -0.80974,-3.265955 -0.144891,-0.731355 -0.225911,-1.492469 -0.431862,-2.213291 -0.07525,-0.263371 -0.148976,-0.540859 -0.269913,-0.782747 -0.02956,-0.05912 0.007,-0.146317 -0.02679,-0.215519 -0.09373,-0.191969 -0.236069,-0.350175 -0.283865,-0.568634 -0.05627,-0.257195 -0.05107,-0.518613 -0.07704,-0.778332 -0.0043,-0.04271 -0.142544,-0.639182 -5.29e-4,-0.650524 0.279015,-0.02228 0.444629,0.0671 0.689135,0.215931 1.331788,0.810653 1.704152,3.20457 1.970368,4.61552 0.517972,2.745261 -0.06593,-0.403084 0.242922,1.295586 0.0697,0.383324 0.166314,0.663953 0.117494,1.047543 -0.09733,0.764722 -0.223251,1.527855 -0.315222,2.294279 -0.0044,0.03637 -0.01265,0.635466 -0.09504,0.6208 -0.321186,-0.05717 -0.597165,-0.310822 -0.765299,-0.58148 -0.959254,-1.544164 -1.25448,-2.886682 -1.484522,-4.669505 -0.01857,-0.143881 -0.03599,-0.287907 -0.05399,-0.43186 -0.01799,-0.179943 -0.03155,-0.360384 -0.05398,-0.539828 -0.03145,-0.251619 -0.05398,-0.358244 -0.05398,-0.593809 0,-0.05398 -0.01764,-0.212969 0,-0.161948 0.219855,0.636116 0.261296,1.344609 0.340471,2.009676 0.0996,0.836656 0.207774,1.672358 0.296906,2.510195 0.06742,0.633704 0.153131,1.260909 0.24292,1.889398 0.006,0.04207 -0.03376,0.281966 0,0.318349 0.194814,0.209931 0.392395,0.398984 0.554798,0.64267 0.149312,0.224047 0.347319,0.8195 0.557374,0.955064 0.08267,0.05335 -0.01,-0.197025 -0.02699,-0.293933 -0.03814,-0.217247 -0.08469,-0.433031 -0.134956,-0.647793 -0.196856,-0.841108 -0.428512,-1.690412 -0.701774,-2.510196 -0.05716,-0.171476 -0.172292,-0.392244 -0.215931,-0.566818 -0.01759,-0.07037 -0.04728,-0.285575 -0.02699,-0.215932 0.287871,0.988447 0.52188,1.984084 0.747342,2.992742 0.02347,0.104997 0.145341,1.116819 0.269915,1.268595 0.01016,0.01238 0.0029,-0.03233 0,-0.04809 -0.02217,-0.119653 -0.05818,-0.236752 -0.07508,-0.357262 -0.03518,-0.250907 -0.06226,-0.503092 -0.08098,-0.755761 -0.04723,-0.637617 -0.06002,-1.277361 -0.08098,-1.916383 -0.01593,-0.48563 0.06851,-1.007058 -0.02699,-1.484525"
       id="longHair" />
    <g
       id="hat"
       style="display:inline">
      <rect
         style="opacity:1;fill:#000000;fill-opacity:1;stroke:none;stroke-width:1.69333;stroke-miterlimit:4;stroke-dasharray:none;stroke-opacity:1;paint-order:stroke fill markers"
         id="rect2516"
         width="28.889681"
         height="2.4636359"
         x="1.0428586"
         y="7.445529"
         ry="1.231818" />
      <rect
         style="opacity:1;fill:#000000;fill-opacity:1;stroke:none;stroke-width:1.69334;stroke-miterlimit:4;stroke-dasharray:none;stroke-opacity:1;paint-order:stroke fill markers"
         id="rect2387"
         width="18.100061"
         height="8.6418829"
         x="-23.842171"
         y="-9.7522917"
         transform="scale(-1)"
         ry="2.6028757" />
    </g>
    <path
       style="fill:none;stroke:#000000;stroke-width:0.899583;stroke-linecap:butt;stroke-linejoin:miter;stroke-miterlimit:4;stroke-dasharray:none;stroke-opacity:1"
       d="m 11.042959,23.958736 c 0.738654,-0.678321 1.338856,-0.793684 2.292439,-0.940392 0.419265,-0.0645 0.904642,-0.147283 1.334962,-0.07556 0.350253,0.05837 0.935503,0.146854 1.277077,0.06062 0.28051,-0.07082 0.606807,-0.03377 0.902662,-0.06664 0.524677,-0.0583 1.116656,-0.123544 1.63722,0.02519 0.613106,0.175171 1.447321,0.940663 1.607068,1.562616"
       id="moustache" />
    <path
       style="fill:none;stroke:#000000;stroke-width:2.01083;stroke-linecap:butt;stroke-linejoin:miter;stroke-miterlimit:4;stroke-dasharray:none;stroke-opacity:1"
       d="m 10.440012,27.73391 c 0.736925,0.444283 1.424669,0.966642 2.119315,1.473547 0.174195,0.127116 0.522184,0.45113 0.755642,0.528947 0.14252,0.04751 0.362265,0.02455 0.512612,0.05794 1.075546,0.2389 1.680295,0.323519 2.779825,0.176916 0.6585,-0.0878 1.2891,-0.216543 1.838725,-0.604512 0.801622,-0.565849 1.586448,-1.281716 2.317294,-1.939475 0.09087,-0.08179 0.454541,-0.554136 0.629703,-0.554136"
       id="beard" />
  </g>
</svg>
